<svg width="235" height="82" viewBox="0 0 235 82" fill="none" xmlns="http://www.w3.org/2000/svg">
<path d="M79.1978 29.56C76.9311 29.56 74.7311 29.28 72.5978 28.72C70.4644 28.16 68.7311 27.4133 67.3978 26.48L69.9978 20.64C71.2511 21.4667 72.7044 22.1333 74.3578 22.64C76.0111 23.1467 77.6378 23.4 79.2378 23.4C82.2778 23.4 83.7978 22.64 83.7978 21.12C83.7978 20.32 83.3578 19.7333 82.4778 19.36C81.6244 18.96 80.2378 18.5467 78.3178 18.12C76.2111 17.6667 74.4511 17.1867 73.0378 16.68C71.6244 16.1467 70.4111 15.3067 69.3978 14.16C68.3844 13.0133 67.8778 11.4667 67.8778 9.52C67.8778 7.81333 68.3444 6.28 69.2778 4.92C70.2111 3.53333 71.5978 2.44 73.4378 1.64C75.3044 0.839999 77.5844 0.439998 80.2778 0.439998C82.1178 0.439998 83.9311 0.653332 85.7178 1.08C87.5044 1.48 89.0778 2.08 90.4378 2.88L87.9978 8.76C85.3311 7.32 82.7444 6.6 80.2378 6.6C78.6644 6.6 77.5178 6.84 76.7978 7.32C76.0778 7.77333 75.7178 8.37333 75.7178 9.12C75.7178 9.86667 76.1444 10.4267 76.9978 10.8C77.8511 11.1733 79.2244 11.56 81.1178 11.96C83.2511 12.4133 85.0111 12.9067 86.3978 13.44C87.8111 13.9467 89.0244 14.7733 90.0378 15.92C91.0778 17.04 91.5978 18.5733 91.5978 20.52C91.5978 22.2 91.1311 23.72 90.1978 25.08C89.2644 26.44 87.8644 27.5333 85.9978 28.36C84.1311 29.16 81.8644 29.56 79.1978 29.56ZM120.536 29L120.456 14.16L113.256 26.24H109.736L102.576 14.56V29H95.2562V0.999998H101.776L111.616 17.16L121.216 0.999998H127.736L127.816 29H120.536ZM158.7 29L158.62 14.16L151.42 26.24H147.9L140.74 14.56V29H133.42V0.999998H139.94L149.78 17.16L159.38 0.999998H165.9L165.98 29H158.7ZM46.5004 53L37.4204 81H28.9404L23.5804 63.96L17.9804 81H9.50042L0.420418 53H8.58042L14.2204 70.88L20.1404 53H27.4204L33.0604 71.04L38.9404 53H46.5004ZM69.5367 70.2C69.5367 70.2533 69.4967 70.88 69.4167 72.08H53.6567C53.9767 73.2 54.59 74.0667 55.4967 74.68C56.43 75.2667 57.59 75.56 58.9767 75.56C60.0167 75.56 60.91 75.4133 61.6567 75.12C62.43 74.8267 63.2033 74.3467 63.9767 73.68L67.9767 77.84C65.87 80.1867 62.79 81.36 58.7367 81.36C56.2033 81.36 53.9767 80.88 52.0567 79.92C50.1367 78.96 48.6433 77.6267 47.5767 75.92C46.5367 74.2133 46.0167 72.28 46.0167 70.12C46.0167 67.9867 46.5233 66.08 47.5367 64.4C48.5767 62.6933 50.0033 61.36 51.8167 60.4C53.63 59.44 55.67 58.96 57.9367 58.96C60.0967 58.96 62.0567 59.4133 63.8167 60.32C65.5767 61.2 66.9633 62.4933 67.9767 64.2C69.0167 65.88 69.5367 67.88 69.5367 70.2ZM57.9767 64.36C56.8033 64.36 55.8167 64.6933 55.0167 65.36C54.2433 66.0267 53.75 66.9333 53.5367 68.08H62.4167C62.2033 66.9333 61.6967 66.0267 60.8967 65.36C60.1233 64.6933 59.15 64.36 57.9767 64.36ZM86.6807 58.96C88.6541 58.96 90.4407 59.4133 92.0407 60.32C93.6674 61.2267 94.9474 62.5333 95.8807 64.24C96.8407 65.92 97.3207 67.88 97.3207 70.12C97.3207 72.36 96.8407 74.3333 95.8807 76.04C94.9474 77.7467 93.6674 79.0667 92.0407 80C90.4407 80.9067 88.6541 81.36 86.6807 81.36C83.8274 81.36 81.6941 80.52 80.2807 78.84V81H73.0407V51.32H80.6407V61.2C82.1074 59.7067 84.1207 58.96 86.6807 58.96ZM85.0807 75.32C86.4141 75.32 87.5074 74.8667 88.3607 73.96C89.2141 73.0267 89.6407 71.7467 89.6407 70.12C89.6407 68.52 89.2141 67.2667 88.3607 66.36C87.5074 65.4533 86.4141 65 85.0807 65C83.7474 65 82.6541 65.4533 81.8007 66.36C80.9474 67.2667 80.5207 68.52 80.5207 70.12C80.5207 71.7467 80.9474 73.0267 81.8007 73.96C82.6541 74.8667 83.7474 75.32 85.0807 75.32ZM120.774 59.12V65.28H133.134V71.4H120.774V81H112.854V53H134.814V59.12H120.774ZM148.569 81.36C146.249 81.36 144.156 80.88 142.289 79.92C140.423 78.96 138.956 77.6267 137.889 75.92C136.849 74.2133 136.329 72.28 136.329 70.12C136.329 67.9867 136.849 66.0667 137.889 64.36C138.956 62.6533 140.409 61.3333 142.249 60.4C144.116 59.44 146.223 58.96 148.569 58.96C150.916 58.96 153.023 59.44 154.889 60.4C156.756 61.3333 158.209 62.6533 159.249 64.36C160.289 66.04 160.809 67.96 160.809 70.12C160.809 72.28 160.289 74.2133 159.249 75.92C158.209 77.6267 156.756 78.96 154.889 79.92C153.023 80.88 150.916 81.36 148.569 81.36ZM148.569 75.32C149.903 75.32 150.996 74.8667 151.849 73.96C152.703 73.0267 153.129 71.7467 153.129 70.12C153.129 68.52 152.703 67.2667 151.849 66.36C150.996 65.4533 149.903 65 148.569 65C147.236 65 146.143 65.4533 145.289 66.36C144.436 67.2667 144.009 68.52 144.009 70.12C144.009 71.7467 144.436 73.0267 145.289 73.96C146.143 74.8667 147.236 75.32 148.569 75.32ZM175.41 81.36C173.01 81.36 170.863 80.88 168.97 79.92C167.076 78.96 165.596 77.6267 164.53 75.92C163.49 74.2133 162.97 72.28 162.97 70.12C162.97 67.96 163.49 66.04 164.53 64.36C165.596 62.6533 167.076 61.3333 168.97 60.4C170.863 59.44 173.01 58.96 175.41 58.96C177.863 58.96 179.983 59.4933 181.77 60.56C183.556 61.6 184.823 63.0533 185.57 64.92L179.69 67.92C178.703 65.9733 177.263 65 175.37 65C174.01 65 172.876 65.4533 171.97 66.36C171.09 67.2667 170.65 68.52 170.65 70.12C170.65 71.7467 171.09 73.0267 171.97 73.96C172.876 74.8667 174.01 75.32 175.37 75.32C177.263 75.32 178.703 74.3467 179.69 72.4L185.57 75.4C184.823 77.2667 183.556 78.7333 181.77 79.8C179.983 80.84 177.863 81.36 175.41 81.36ZM211.231 59.32V81H203.991V78.68C203.191 79.56 202.231 80.2267 201.111 80.68C199.991 81.1333 198.805 81.36 197.551 81.36C194.751 81.36 192.511 80.5333 190.831 78.88C189.178 77.2267 188.351 74.7467 188.351 71.44V59.32H195.951V70.2C195.951 71.8267 196.258 73.0133 196.871 73.76C197.485 74.5067 198.378 74.88 199.551 74.88C200.751 74.88 201.725 74.4667 202.471 73.64C203.245 72.7867 203.631 71.4933 203.631 69.76V59.32H211.231ZM224.007 81.36C222.193 81.36 220.407 81.16 218.647 80.76C216.887 80.3333 215.473 79.7867 214.407 79.12L216.687 73.92C217.673 74.5333 218.847 75.0267 220.207 75.4C221.567 75.7467 222.913 75.92 224.247 75.92C225.473 75.92 226.34 75.8 226.847 75.56C227.38 75.2933 227.647 74.92 227.647 74.44C227.647 73.96 227.327 73.6267 226.687 73.44C226.073 73.2267 225.087 73.0267 223.727 72.84C221.993 72.6267 220.513 72.3467 219.287 72C218.087 71.6533 217.047 71.0133 216.167 70.08C215.287 69.1467 214.847 67.84 214.847 66.16C214.847 64.7733 215.26 63.5467 216.087 62.48C216.913 61.3867 218.113 60.5333 219.687 59.92C221.287 59.28 223.193 58.96 225.407 58.96C226.98 58.96 228.54 59.12 230.087 59.44C231.633 59.76 232.927 60.2133 233.967 60.8L231.687 65.96C229.767 64.8933 227.687 64.36 225.447 64.36C224.247 64.36 223.367 64.5067 222.807 64.8C222.247 65.0667 221.967 65.4267 221.967 65.88C221.967 66.3867 222.273 66.7467 222.887 66.96C223.5 67.1467 224.513 67.3467 225.927 67.56C227.713 67.8267 229.193 68.1333 230.367 68.48C231.54 68.8267 232.553 69.4667 233.407 70.4C234.287 71.3067 234.727 72.5867 234.727 74.24C234.727 75.6 234.313 76.8267 233.487 77.92C232.66 78.9867 231.433 79.8267 229.807 80.44C228.207 81.0533 226.273 81.36 224.007 81.36Z" fill="white"/>
</svg>
